<svg width="14" height="14" fill="none" xmlns="http://www.w3.org/2000/svg"><g clip-path="url(#clip0_16_3721)" fill="#3D8BC1"><path d="M7 14a7 7 0 117-7 .412.412 0 01-.825 0A6.182 6.182 0 007 .825 6.182 6.182 0 00.825 7 6.182 6.182 0 007 13.175a6.14 6.14 0 005.553-3.47.41.41 0 01.554-.194.412.412 0 01.187.557A7 7 0 017 14z"/><path d="M9.871 7.536V9.56a.31.31 0 01-.31.311H7.538a.31.31 0 01-.31-.31V7.536a.31.31 0 01.31-.31H9.56a.31.31 0 01.31.31zM6.773 4.439v2.023a.31.31 0 01-.31.31H4.44a.31.31 0 01-.311-.31V4.44a.31.31 0 01.31-.31h2.024a.31.31 0 01.31.31zm0 3.097V9.56a.31.31 0 01-.31.311H4.44a.31.31 0 01-.311-.31V7.536a.31.31 0 01.31-.31h2.024a.31.31 0 01.31.31zm3.098-3.097v2.023a.31.31 0 01-.31.31H7.538a.31.31 0 01-.31-.31V4.44a.31.31 0 01.31-.31H9.56a.31.31 0 01.31.31z"/></g><defs><clipPath id="clip0_16_3721"><path fill="#fff" d="M0 0h14v14H0z"/></clipPath></defs></svg>