<svg width="22" height="22" fill="none" xmlns="http://www.w3.org/2000/svg"><g clip-path="url(#clip0_59_912)"><path d="M22 11.172a4.818 4.818 0 01-4.813 4.812H13.75a.687.687 0 110-1.375h3.438a3.442 3.442 0 003.437-3.437 3.442 3.442 0 00-3.438-3.438H16.5a.687.687 0 01-.688-.687A4.818 4.818 0 0011 2.234a4.818 4.818 0 00-4.813 4.813c0 .38-.307.687-.687.687h-.688a3.442 3.442 0 00-3.437 3.438 3.442 3.442 0 003.438 3.437H8.25a.687.687 0 110 1.375H4.812A4.818 4.818 0 010 11.172a4.818 4.818 0 014.813-4.813h.038A6.196 6.196 0 0111 .86c3.18 0 5.806 2.41 6.15 5.5h.038A4.818 4.818 0 0122 11.172zm-8.736 6.389l-1.576 1.576v-8.653a.687.687 0 10-1.376 0v8.653l-1.576-1.576a.687.687 0 10-.972.972l2.75 2.75a.686.686 0 00.972 0l2.75-2.75a.687.687 0 10-.972-.972z" fill="#E50777"/></g><defs><clipPath id="clip0_59_912"><path fill="#fff" d="M0 0h22v22H0z"/></clipPath></defs></svg>