<svg width="14" height="14" fill="none" xmlns="http://www.w3.org/2000/svg"><g clip-path="url(#clip0_16_3690)"><path d="M7 0a7 7 0 100 14c1.78 0 3.403-.664 4.638-1.758A7 7 0 007 0z" fill="#3D8BC1"/><path d="M11.09 11.674a10.247 10.247 0 00-1.717-1.039A1.772 1.772 0 018.36 8.778c0-.011.003-.022.006-.036 0 0 1.612-1.092 1.389-2.155 0 0 .05.002.124-.003.711-.066.755-1.125.052-1.238l-.019-.002-.022-.116c.215-.752.739-3.032-.846-2.811 0 0-1.138-1.882-3.544-.976-2.409.904-1.78 3.062-1.78 3.062l.297.86c-.648.16-.587 1.16.102 1.224.074.005.127.002.127.002-.226 1.064 1.386 2.156 1.386 2.156.003.013.003.024.006.035a1.78 1.78 0 01-1.012 1.858c-.71.328-1.358.774-1.717 1.039a2.213 2.213 0 00-.55.57A7.014 7.014 0 007 14c1.78 0 3.404-.664 4.638-1.758a2.192 2.192 0 00-.548-.568z" fill="#fff"/></g><defs><clipPath id="clip0_16_3690"><path fill="#fff" d="M0 0h14v14H0z"/></clipPath></defs></svg>