<svg width="14" height="14" viewBox="0 0 14 14" fill="none" xmlns="http://www.w3.org/2000/svg">
<g clip-path="url(#clip0_16_3721)">
<path d="M7.00017 14.0002C5.61585 14 4.26268 13.5893 3.11173 12.8201C1.96078 12.0509 1.06373 10.9578 0.534008 9.67881C0.00428157 8.39986 -0.13434 6.99255 0.135669 5.63482C0.405678 4.2771 1.07219 3.02991 2.05095 2.05095C3.02991 1.07219 4.2771 0.405678 5.63482 0.135669C6.99255 -0.13434 8.39986 0.00428157 9.67881 0.534008C10.9578 1.06373 12.0509 1.96078 12.8201 3.11173C13.5893 4.26268 14 5.61585 14.0002 7.00017C14.0002 7.10953 13.9567 7.21441 13.8794 7.29174C13.8021 7.36907 13.6972 7.41251 13.5878 7.41251C13.4785 7.41251 13.3736 7.36907 13.2963 7.29174C13.2189 7.21441 13.1755 7.10953 13.1755 7.00017C13.1755 3.59505 10.4053 0.824854 7.00017 0.824854C3.59505 0.824854 0.824854 3.59505 0.824854 7.00017C0.824854 10.4053 3.59505 13.1755 7.00017 13.1755C9.37907 13.1755 11.5081 11.846 12.5529 9.70583C12.5761 9.65639 12.609 9.61207 12.6496 9.57545C12.6901 9.53883 12.7375 9.51063 12.7891 9.49249C12.8406 9.47435 12.8953 9.46664 12.9498 9.46981C13.0044 9.47297 13.0577 9.48694 13.1068 9.51091C13.1559 9.53489 13.1998 9.56838 13.2358 9.60944C13.2719 9.65051 13.2994 9.69833 13.3168 9.75012C13.3342 9.80192 13.3411 9.85666 13.3372 9.91116C13.3333 9.96566 13.3185 10.0188 13.2939 10.0676C12.7189 11.2471 11.8239 12.2412 10.7111 12.9366C9.59824 13.6319 8.31237 14.0005 7.00017 14.0002Z" fill="#3D8BC1"/>
<path d="M9.8711 7.53643V9.55987C9.87125 9.60066 9.86334 9.64107 9.84784 9.6788C9.83234 9.71653 9.80954 9.75083 9.78077 9.77974C9.75199 9.80864 9.71779 9.83159 9.68013 9.84725C9.64247 9.86292 9.60209 9.87101 9.5613 9.87104H7.53786C7.49707 9.87104 7.45667 9.86301 7.41899 9.8474C7.3813 9.83179 7.34706 9.80891 7.31821 9.78006C7.28937 9.75122 7.26649 9.71697 7.25088 9.67929C7.23527 9.6416 7.22723 9.60121 7.22723 9.56042V7.53698C7.22723 7.49623 7.23527 7.45587 7.25089 7.41823C7.26651 7.38059 7.28941 7.3464 7.31826 7.31762C7.34712 7.28884 7.38137 7.26604 7.41905 7.25052C7.45673 7.235 7.49711 7.22707 7.53786 7.22717H9.5613C9.60196 7.2271 9.64223 7.23505 9.67981 7.25056C9.7174 7.26607 9.75155 7.28884 9.78033 7.31756C9.8091 7.34628 9.83193 7.3804 9.84751 7.41796C9.86308 7.45551 9.8711 7.49577 9.8711 7.53643Z" fill="#3D8BC1"/>
<path d="M6.77332 4.43871V6.46215C6.77343 6.5029 6.7655 6.54328 6.74997 6.58096C6.73445 6.61864 6.71165 6.65289 6.68287 6.68175C6.65409 6.7106 6.6199 6.73349 6.58226 6.74911C6.54462 6.76473 6.50427 6.77278 6.46352 6.77278H4.44008C4.39928 6.77288 4.35885 6.76494 4.32112 6.74941C4.28339 6.73388 4.2491 6.71106 4.22019 6.68226C4.19129 6.65346 4.16835 6.61925 4.15269 6.58157C4.13702 6.54389 4.12894 6.5035 4.12891 6.4627V4.43926C4.12883 4.39846 4.13682 4.35805 4.15241 4.32034C4.168 4.28264 4.19088 4.24839 4.21974 4.21955C4.2486 4.19071 4.28288 4.16786 4.3206 4.15231C4.35831 4.13675 4.39873 4.1288 4.43953 4.12891H6.46297C6.50372 4.12876 6.5441 4.13668 6.58178 4.15219C6.61946 4.1677 6.65371 4.1905 6.68255 4.21929C6.71139 4.24808 6.73426 4.28229 6.74983 4.31994C6.76541 4.3576 6.77339 4.39796 6.77332 4.43871Z" fill="#3D8BC1"/>
<path d="M6.77332 7.53643V9.55987C6.77346 9.60066 6.76556 9.64108 6.75006 9.6788C6.73456 9.71653 6.71176 9.75083 6.68298 9.77974C6.65421 9.80865 6.62001 9.83159 6.58235 9.84726C6.54469 9.86292 6.5043 9.87101 6.46352 9.87104H4.44008C4.39924 9.87111 4.35879 9.86313 4.32104 9.84755C4.28329 9.83198 4.24898 9.80911 4.22008 9.78026C4.19118 9.7514 4.16825 9.71714 4.1526 9.67941C4.13696 9.64169 4.12891 9.60126 4.12891 9.56042V7.53698C4.12891 7.49623 4.13695 7.45587 4.15257 7.41823C4.16819 7.38059 4.19108 7.3464 4.21994 7.31762C4.24879 7.28885 4.28304 7.26604 4.32072 7.25052C4.3584 7.235 4.39878 7.22707 4.43953 7.22717H6.46297C6.50367 7.22703 6.54401 7.23492 6.58165 7.2504C6.6193 7.26588 6.65352 7.28864 6.68235 7.31737C6.71119 7.3461 6.73407 7.38024 6.74968 7.41783C6.76529 7.45542 6.77332 7.49573 6.77332 7.53643Z" fill="#3D8BC1"/>
<path d="M9.8711 4.43871V6.46215C9.87121 6.5029 9.86328 6.54328 9.84775 6.58096C9.83223 6.61864 9.80943 6.65289 9.78065 6.68175C9.75187 6.7106 9.71768 6.73349 9.68004 6.74911C9.6424 6.76473 9.60205 6.77278 9.5613 6.77278H7.53786C7.49706 6.77281 7.45665 6.7648 7.41895 6.7492C7.38124 6.73361 7.34699 6.71073 7.31813 6.68188C7.28928 6.65302 7.2664 6.61877 7.25081 6.58106C7.23521 6.54336 7.2272 6.50295 7.22723 6.46215V4.43871C7.22723 4.39801 7.23526 4.3577 7.25084 4.32009C7.26643 4.28249 7.28927 4.24832 7.31807 4.21955C7.34687 4.19078 7.38105 4.16797 7.41867 4.15241C7.45629 4.13686 7.4966 4.12887 7.53731 4.12891H9.56075C9.6015 4.12876 9.64188 4.13668 9.67956 4.15219C9.71724 4.1677 9.75149 4.1905 9.78033 4.21929C9.80917 4.24808 9.83204 4.28229 9.84761 4.31994C9.86319 4.3576 9.87117 4.39796 9.8711 4.43871Z" fill="#3D8BC1"/>
</g>
<defs>
<clipPath id="clip0_16_3721">
<rect width="14" height="14" fill="white"/>
</clipPath>
</defs>
</svg>
