<svg width="22" height="22" viewBox="0 0 22 22" fill="none" xmlns="http://www.w3.org/2000/svg">
<g clip-path="url(#clip0_59_912)">
<path d="M22 11.1719C22 13.8255 19.8407 15.9844 17.1875 15.9844H13.75C13.37 15.9844 13.0625 15.6765 13.0625 15.2969C13.0625 14.9172 13.37 14.6094 13.75 14.6094H17.1875C19.0828 14.6094 20.625 13.0671 20.625 11.1719C20.625 9.27661 19.0828 7.73438 17.1875 7.73438H16.5C16.12 7.73438 15.8125 7.42655 15.8125 7.04688C15.8125 4.3933 13.6532 2.23438 11 2.23438C8.34677 2.23438 6.1875 4.3933 6.1875 7.04688C6.1875 7.42655 5.88002 7.73438 5.5 7.73438H4.8125C2.91723 7.73438 1.375 9.27661 1.375 11.1719C1.375 13.0671 2.91723 14.6094 4.8125 14.6094H8.25C8.63002 14.6094 8.9375 14.9172 8.9375 15.2969C8.9375 15.6765 8.63002 15.9844 8.25 15.9844H4.8125C2.15927 15.9844 0 13.8255 0 11.1719C0 8.5183 2.15927 6.35938 4.8125 6.35938H4.85083C5.19389 3.26992 7.82031 0.859375 11 0.859375C14.1797 0.859375 16.8061 3.26992 17.1492 6.35938H17.1875C19.8409 6.35938 22 8.5183 22 11.1719ZM13.2639 17.5608L11.6875 19.1373V10.4844C11.6875 10.1047 11.38 9.79688 11 9.79688C10.62 9.79688 10.3125 10.1047 10.3125 10.4844V19.1373L8.73606 17.5608C8.46742 17.2922 8.03241 17.2922 7.76394 17.5608C7.49547 17.8295 7.4953 18.2645 7.76394 18.5329L10.5139 21.2829C10.6482 21.4172 10.8242 21.4844 11 21.4844C11.1758 21.4844 11.3518 21.4172 11.4861 21.2829L14.2361 18.5329C14.5047 18.2643 14.5047 17.8293 14.2361 17.5608C13.9674 17.2923 13.5324 17.2922 13.2639 17.5608Z" fill="#E50777"/>
</g>
<defs>
<clipPath id="clip0_59_912">
<rect width="22" height="22" fill="white"/>
</clipPath>
</defs>
</svg>
