<svg width="14" height="14" viewBox="0 0 14 14" fill="none" xmlns="http://www.w3.org/2000/svg">
<g clip-path="url(#clip0_16_3690)">
<path d="M7 0C3.13346 0 0 3.13346 0 7C0 9.08622 0.912205 10.9602 2.36181 12.2445C3.59921 13.3358 5.22244 14 7 14C8.78031 14 10.4035 13.3358 11.6382 12.2417C13.0878 10.9602 14 9.08622 14 7C14 3.13346 10.8665 0 7 0Z" fill="#3D8BC1"/>
<path d="M11.0898 11.674C10.7315 11.4067 10.0811 10.963 9.37285 10.6351C8.66458 10.3099 8.24844 9.54648 8.36143 8.77758C8.36143 8.76656 8.36419 8.75554 8.36694 8.74176C8.36694 8.74176 9.97915 7.65042 9.75592 6.58664C9.75592 6.58664 9.80553 6.58939 9.87994 6.58388C10.591 6.51774 10.6351 5.45947 9.9323 5.34648C9.92679 5.34648 9.91852 5.34372 9.91301 5.34372L9.89096 5.22798C10.1059 4.47561 10.6295 2.19648 9.0449 2.41695C9.0449 2.41695 7.90671 0.534669 5.5008 1.44136C3.09214 2.3453 3.72049 4.50317 3.72049 4.50317L4.01813 5.36302C3.37049 5.52286 3.43112 6.52325 4.12009 6.58664C4.1945 6.59215 4.24687 6.58939 4.24687 6.58939C4.02088 7.65317 5.63309 8.74451 5.63309 8.74451C5.63584 8.75829 5.63584 8.76932 5.6386 8.78034C5.74883 9.54924 5.33269 10.3126 4.62718 10.6378C3.91616 10.9658 3.26852 11.4122 2.91025 11.6768C2.69529 11.8339 2.50513 12.024 2.35907 12.2473C3.59923 13.3359 5.22246 14 7.00001 14C8.78033 14 10.4036 13.3359 11.6382 12.2418C11.4949 12.0213 11.3047 11.8311 11.0898 11.674Z" fill="white"/>
</g>
<defs>
<clipPath id="clip0_16_3690">
<rect width="14" height="14" fill="white"/>
</clipPath>
</defs>
</svg>
